<svg width="29" height="30" viewBox="0 0 29 30" fill="none" xmlns="http://www.w3.org/2000/svg">
<path d="M20.3864 6.47703H19.1872V4.69022C19.1872 3.69488 18.3717 2.87943 17.3764 2.87943H11.4044C10.409 2.87943 9.59357 3.69488 9.59357 4.69022V6.47703H8.39437C7.07525 6.47703 5.99597 7.55631 5.99597 8.87543V9.03133C6.37972 8.9234 6.77545 8.87543 7.19517 8.87543H21.5856C22.0053 8.87543 22.401 8.9234 22.7848 9.03133V8.87543C22.7848 7.55631 21.7055 6.47703 20.3864 6.47703Z" fill="#EFEEE0" fill-opacity="0.25"/>
<path d="M16.7049 21.0833C16.3212 21.0833 16.0214 21.3951 16.0214 21.7668C16.0214 22.1386 16.3332 22.4504 16.7049 22.4504C17.0767 22.4504 17.3885 22.1386 17.3885 21.7668C17.3885 21.3951 17.0767 21.0833 16.7049 21.0833Z" fill="#EFEEE0" fill-opacity="0.25"/>
<path d="M10.8767 22.1386C10.4929 22.1386 10.1931 22.4504 10.1931 22.8221C10.1931 23.1939 10.5049 23.5057 10.8767 23.5057C11.2484 23.5057 11.5602 23.1939 11.5602 22.8221C11.5602 22.4504 11.2604 22.1386 10.8767 22.1386Z" fill="#EFEEE0" fill-opacity="0.25"/>
<path d="M22.7849 10.8301C22.4011 10.7222 22.0054 10.6742 21.5857 10.6742H7.19524C6.77552 10.6742 6.37978 10.7222 5.99604 10.8301C3.93341 11.3698 2.39844 13.2525 2.39844 15.471V22.6662C2.39844 25.3045 4.557 27.4631 7.19524 27.4631H21.5857C24.2239 27.4631 26.3825 25.3045 26.3825 22.6662V15.471C26.3825 13.2525 24.8475 11.3698 22.7849 10.8301ZM19.1872 16.7062V21.7668C19.1872 23.1339 18.072 24.2492 16.7049 24.2492C15.3378 24.2492 14.2226 23.1339 14.2226 21.7668C14.2226 20.3998 15.3378 19.2845 16.7049 19.2845C16.9447 19.2845 17.1726 19.3325 17.3884 19.3924V17.8814L13.3711 18.9727V22.8221C13.3711 22.8341 13.3711 22.8461 13.3591 22.8581C13.3471 24.2132 12.2319 25.3165 10.8768 25.3165C9.5097 25.3165 8.39444 24.2012 8.39444 22.8221C8.39444 21.4431 9.5097 20.3398 10.8768 20.3398C11.1166 20.3398 11.3445 20.3878 11.5723 20.4477V18.2892V16.4304C11.5723 15.3991 12.2199 14.5597 13.2032 14.2958L16.3811 13.4204C17.4004 13.1446 18.048 13.4084 18.4078 13.6842C18.7675 13.9601 19.1872 14.4997 19.1872 15.567V16.7062Z" fill="#EFEEE0" fill-opacity="0.25"/>
</svg>
