<svg width="29" height="30" viewBox="0 0 29 30" fill="none" xmlns="http://www.w3.org/2000/svg">
<path d="M9.29367 2.96004V6.55764H8.39427C8.08248 6.55764 7.78268 6.56963 7.49487 6.6176V2.96004C7.49487 2.46837 7.9026 2.06064 8.39427 2.06064C8.88595 2.06064 9.29367 2.46837 9.29367 2.96004Z" fill="#EFEEE0" fill-opacity="0.25"/>
<path d="M20.3865 6.55765H8.39444C8.08265 6.55765 7.78285 6.56964 7.49504 6.61761C4.4011 6.97737 2.39844 9.26784 2.39844 12.5537V20.9481C2.39844 24.5457 4.79684 26.9441 8.39444 26.9441H20.3865C23.9841 26.9441 26.3825 24.5457 26.3825 20.9481V12.5537C26.3825 8.95605 23.9841 6.55765 20.3865 6.55765ZM9.44974 19.7489C7.79484 19.7489 6.45174 18.4058 6.45174 16.7509C6.45174 15.096 7.79484 13.7529 9.44974 13.7529C11.1046 13.7529 12.4477 15.096 12.4477 16.7509C12.4477 18.4058 11.1046 19.7489 9.44974 19.7489ZM17.2445 20.0487H16.6449C16.1533 20.0487 15.7455 19.6409 15.7455 19.1493C15.7455 18.6576 16.1533 18.2499 16.6449 18.2499H17.2445C17.7362 18.2499 18.1439 18.6576 18.1439 19.1493C18.1439 19.6409 17.7362 20.0487 17.2445 20.0487ZM21.4417 20.0487H20.8421C20.3505 20.0487 19.9427 19.6409 19.9427 19.1493C19.9427 18.6576 20.3505 18.2499 20.8421 18.2499H21.4417C21.9334 18.2499 22.3411 18.6576 22.3411 19.1493C22.3411 19.6409 21.9334 20.0487 21.4417 20.0487ZM21.4417 15.2519H16.6449C16.1533 15.2519 15.7455 14.8441 15.7455 14.3525C15.7455 13.8608 16.1533 13.4531 16.6449 13.4531H21.4417C21.9334 13.4531 22.3411 13.8608 22.3411 14.3525C22.3411 14.8441 21.9334 15.2519 21.4417 15.2519Z" fill="#EFEEE0" fill-opacity="0.25"/>
</svg>
