<svg width="29" height="30" viewBox="0 0 29 30" fill="none" xmlns="http://www.w3.org/2000/svg">
<path d="M13.491 9.76819H2.39844V19.7575C2.39844 19.8295 2.39844 19.9014 2.41043 19.9614H13.491V9.76819Z" fill="#EFEEE0" fill-opacity="0.25"/>
<path d="M9.2218 7.96939H13.491V2.74088H9.25778V7.82549C9.25778 7.87345 9.23379 7.92142 9.2218 7.96939Z" fill="#EFEEE0" fill-opacity="0.25"/>
<path d="M7.45905 7.82549V2.93275C4.79683 3.48438 3.05799 5.2592 2.55432 7.96939H7.48304C7.47104 7.92142 7.45905 7.87345 7.45905 7.82549Z" fill="#EFEEE0" fill-opacity="0.25"/>
<path d="M19.451 2.74088H15.2898V7.96939H19.451V2.74088Z" fill="#EFEEE0" fill-opacity="0.25"/>
<path d="M21.2378 7.96939H26.2265C25.7228 5.23521 23.96 3.4484 21.2498 2.92075V7.93341C21.2498 7.94541 21.2378 7.9574 21.2378 7.96939Z" fill="#EFEEE0" fill-opacity="0.25"/>
<path d="M21.2498 26.545C23.876 26.0293 25.6029 24.3505 26.1665 21.7602H21.2498V26.545Z" fill="#EFEEE0" fill-opacity="0.25"/>
<path d="M19.451 21.7602H15.2898V26.7249H19.451V21.7602Z" fill="#EFEEE0" fill-opacity="0.25"/>
<path d="M15.2898 19.9614H26.3704C26.3824 19.9014 26.3824 19.8295 26.3824 19.7575V9.76819H15.2898V19.9614Z" fill="#EFEEE0" fill-opacity="0.25"/>
<path d="M13.491 21.7602H9.25781V26.7249H13.491V21.7602Z" fill="#EFEEE0" fill-opacity="0.25"/>
<path d="M2.61414 21.7602C3.17776 24.3265 4.88063 26.0054 7.45891 26.533V21.7602H2.61414Z" fill="#EFEEE0" fill-opacity="0.25"/>
</svg>
